<svg width="24" height="23" viewBox="0 0 24 23" fill="none" xmlns="http://www.w3.org/2000/svg">
<path d="M12 1.91666C7.6 1.91666 4 5.36666 4 9.58332C4 14.7583 11 20.6042 11.3 20.8917C11.5 20.9875 11.8 21.0833 12 21.0833C12.2 21.0833 12.5 20.9875 12.7 20.8917C13 20.6042 20 14.7583 20 9.58332C20 5.36666 16.4 1.91666 12 1.91666ZM12 18.8792C9.9 16.9625 6 12.8417 6 9.58332C6 6.42082 8.7 3.83332 12 3.83332C15.3 3.83332 18 6.42082 18 9.58332C18 12.7458 14.1 16.9625 12 18.8792ZM12 5.74999C9.8 5.74999 8 7.47499 8 9.58332C8 11.6917 9.8 13.4167 12 13.4167C14.2 13.4167 16 11.6917 16 9.58332C16 7.47499 14.2 5.74999 12 5.74999ZM12 11.5C10.9 11.5 10 10.6375 10 9.58332C10 8.52916 10.9 7.66666 12 7.66666C13.1 7.66666 14 8.52916 14 9.58332C14 10.6375 13.1 11.5 12 11.5Z" fill="#656363"/>
</svg>
